<svg xmlns="http://www.w3.org/2000/svg" xmlns:xlink="http://www.w3.org/1999/xlink" contentStyleType="text/css" data-diagram-type="SEQUENCE" height="590px" preserveAspectRatio="none" style="width:1294px;height:590px;background:#FFFFFF;" version="1.1" viewBox="0 0 1294 590" width="1294px" zoomAndPan="magnify"><title>Sequence Diagram - Add Backup Job</title><defs/><g><text fill="#000000" font-family="sans-serif" font-size="14" font-weight="bold" lengthAdjust="spacing" textLength="287.2734" x="504.5583" y="27.9951">Sequence Diagram - Add Backup Job</text><g><title>User</title><rect fill="#FFFFFF" fill-opacity="0.00000" height="390.7266" width="8" x="19.9551" y="118.5938"/><line style="stroke:#181818;stroke-width:0.5;stroke-dasharray:5.0,5.0;" x1="23" x2="23" y1="118.5938" y2="509.3203"/></g><g><title>MainWindowViewModel</title><rect fill="#FFFFFF" fill-opacity="0.00000" height="390.7266" width="8" x="185.7998" y="118.5938"/><line style="stroke:#181818;stroke-width:0.5;stroke-dasharray:5.0,5.0;" x1="189.5532" x2="189.5532" y1="118.5938" y2="509.3203"/></g><g><title>JobFormWindow</title><rect fill="#FFFFFF" fill-opacity="0.00000" height="390.7266" width="8" x="378.5967" y="118.5938"/><line style="stroke:#181818;stroke-width:0.5;stroke-dasharray:5.0,5.0;" x1="382.0464" x2="382.0464" y1="118.5938" y2="509.3203"/></g><g><title>JobFormViewModel</title><rect fill="#FFFFFF" fill-opacity="0.00000" height="390.7266" width="8" x="555.7256" y="118.5938"/><line style="stroke:#181818;stroke-width:0.5;stroke-dasharray:5.0,5.0;" x1="559.147" x2="559.147" y1="118.5938" y2="509.3203"/></g><g><title>BackupJob</title><rect fill="#FFFFFF" fill-opacity="0.00000" height="390.7266" width="8" x="871.5273" y="118.5938"/><line style="stroke:#181818;stroke-width:0.5;stroke-dasharray:5.0,5.0;" x1="874.8628" x2="874.8628" y1="118.5938" y2="509.3203"/></g><g><title>Validation</title><rect fill="#FFFFFF" fill-opacity="0.00000" height="390.7266" width="8" x="997.3013" y="118.5938"/><line style="stroke:#181818;stroke-width:0.5;stroke-dasharray:5.0,5.0;" x1="1001.1919" x2="1001.1919" y1="118.5938" y2="509.3203"/></g><g><text fill="#000000" font-family="sans-serif" font-size="14" lengthAdjust="spacing" textLength="31.9102" x="5" y="115.292">User</text><ellipse cx="23.9551" cy="50.7969" fill="#E2E2F0" rx="8" ry="8" style="stroke:#181818;stroke-width:0.5;"/><path d="M23.9551,58.7969 L23.9551,85.7969 M10.9551,66.7969 L36.9551,66.7969 M23.9551,85.7969 L10.9551,100.7969 M23.9551,85.7969 L36.9551,100.7969 " fill="#FFFFFF" fill-opacity="0.00000" style="stroke:#181818;stroke-width:0.5;"/></g><g><text fill="#000000" font-family="sans-serif" font-size="14" lengthAdjust="spacing" textLength="31.9102" x="5" y="521.3154">User</text><ellipse cx="23.9551" cy="533.1172" fill="#E2E2F0" rx="8" ry="8" style="stroke:#181818;stroke-width:0.5;"/><path d="M23.9551,541.1172 L23.9551,568.1172 M10.9551,549.1172 L36.9551,549.1172 M23.9551,568.1172 L10.9551,583.1172 M23.9551,568.1172 L36.9551,583.1172 " fill="#FFFFFF" fill-opacity="0.00000" style="stroke:#181818;stroke-width:0.5;"/></g><g><rect fill="#E2E2F0" height="30.2969" rx="2.5" ry="2.5" style="stroke:#181818;stroke-width:0.5;" width="178.4932" x="100.5532" y="87.2969"/><text fill="#000000" font-family="sans-serif" font-size="14" lengthAdjust="spacing" textLength="164.4932" x="107.5532" y="107.292">MainWindowViewModel</text></g><g><rect fill="#E2E2F0" height="30.2969" rx="2.5" ry="2.5" style="stroke:#181818;stroke-width:0.5;" width="178.4932" x="100.5532" y="508.3203"/><text fill="#000000" font-family="sans-serif" font-size="14" lengthAdjust="spacing" textLength="164.4932" x="107.5532" y="528.3154">MainWindowViewModel</text></g><g><rect fill="#E2E2F0" height="30.2969" rx="2.5" ry="2.5" style="stroke:#181818;stroke-width:0.5;" width="127.1006" x="319.0464" y="87.2969"/><text fill="#000000" font-family="sans-serif" font-size="14" lengthAdjust="spacing" textLength="113.1006" x="326.0464" y="107.292">JobFormWindow</text></g><g><rect fill="#E2E2F0" height="30.2969" rx="2.5" ry="2.5" style="stroke:#181818;stroke-width:0.5;" width="127.1006" x="319.0464" y="508.3203"/><text fill="#000000" font-family="sans-serif" font-size="14" lengthAdjust="spacing" textLength="113.1006" x="326.0464" y="528.3154">JobFormWindow</text></g><g><rect fill="#E2E2F0" height="30.2969" rx="2.5" ry="2.5" style="stroke:#181818;stroke-width:0.5;" width="147.1572" x="486.147" y="87.2969"/><text fill="#000000" font-family="sans-serif" font-size="14" lengthAdjust="spacing" textLength="133.1572" x="493.147" y="107.292">JobFormViewModel</text></g><g><rect fill="#E2E2F0" height="30.2969" rx="2.5" ry="2.5" style="stroke:#181818;stroke-width:0.5;" width="147.1572" x="486.147" y="508.3203"/><text fill="#000000" font-family="sans-serif" font-size="14" lengthAdjust="spacing" textLength="133.1572" x="493.147" y="528.3154">JobFormViewModel</text></g><g><rect fill="#E2E2F0" height="30.2969" rx="2.5" ry="2.5" style="stroke:#181818;stroke-width:0.5;" width="87.3291" x="831.8628" y="87.2969"/><text fill="#000000" font-family="sans-serif" font-size="14" lengthAdjust="spacing" textLength="73.3291" x="838.8628" y="107.292">BackupJob</text></g><g><rect fill="#E2E2F0" height="30.2969" rx="2.5" ry="2.5" style="stroke:#181818;stroke-width:0.5;" width="87.3291" x="831.8628" y="508.3203"/><text fill="#000000" font-family="sans-serif" font-size="14" lengthAdjust="spacing" textLength="73.3291" x="838.8628" y="528.3154">BackupJob</text></g><g><rect fill="#E2E2F0" height="30.2969" rx="2.5" ry="2.5" style="stroke:#181818;stroke-width:0.5;" width="84.2188" x="959.1919" y="87.2969"/><text fill="#000000" font-family="sans-serif" font-size="14" lengthAdjust="spacing" textLength="70.2188" x="966.1919" y="107.292">Validation</text></g><g><rect fill="#E2E2F0" height="30.2969" rx="2.5" ry="2.5" style="stroke:#181818;stroke-width:0.5;" width="84.2188" x="959.1919" y="508.3203"/><text fill="#000000" font-family="sans-serif" font-size="14" lengthAdjust="spacing" textLength="70.2188" x="966.1919" y="528.3154">Validation</text></g><g><polygon fill="#181818" points="177.7998,145.7266,187.7998,149.7266,177.7998,153.7266,181.7998,149.7266" style="stroke:#181818;stroke-width:1;"/><line style="stroke:#181818;stroke-width:1;" x1="23.9551" x2="183.7998" y1="149.7266" y2="149.7266"/><text fill="#000000" font-family="sans-serif" font-size="13" lengthAdjust="spacing" textLength="141.8447" x="30.9551" y="144.6606">OpenAddJobWindow()</text></g><g><polygon fill="#181818" points="370.5967,174.8594,380.5967,178.8594,370.5967,182.8594,374.5967,178.8594" style="stroke:#181818;stroke-width:1;"/><line style="stroke:#181818;stroke-width:1;" x1="189.7998" x2="376.5967" y1="178.8594" y2="178.8594"/><text fill="#000000" font-family="sans-serif" font-size="13" lengthAdjust="spacing" textLength="146.1675" x="196.7998" y="173.7935">new JobFormWindow()</text></g><g><polygon fill="#181818" points="547.7256,203.9922,557.7256,207.9922,547.7256,211.9922,551.7256,207.9922" style="stroke:#181818;stroke-width:1;"/><line style="stroke:#181818;stroke-width:1;" x1="189.7998" x2="553.7256" y1="207.9922" y2="207.9922"/><text fill="#000000" font-family="sans-serif" font-size="13" lengthAdjust="spacing" textLength="236.374" x="196.7998" y="202.9263">new JobFormViewModel(JobWindow)</text></g><g><polygon fill="#181818" points="547.7256,233.125,557.7256,237.125,547.7256,241.125,551.7256,237.125" style="stroke:#181818;stroke-width:1;"/><line style="stroke:#181818;stroke-width:1;" x1="382.5967" x2="553.7256" y1="237.125" y2="237.125"/><text fill="#000000" font-family="sans-serif" font-size="13" lengthAdjust="spacing" textLength="107.6753" x="389.5967" y="232.0591">Set DataContext</text></g><g><polygon fill="#181818" points="547.7256,262.2578,557.7256,266.2578,547.7256,270.2578,551.7256,266.2578" style="stroke:#181818;stroke-width:1;"/><line style="stroke:#181818;stroke-width:1;" x1="23.9551" x2="553.7256" y1="266.2578" y2="266.2578"/><text fill="#000000" font-family="sans-serif" font-size="13" lengthAdjust="spacing" textLength="128.2036" x="30.9551" y="261.1919">Remplir les champs</text></g><g><polygon fill="#181818" points="547.7256,291.3906,557.7256,295.3906,547.7256,299.3906,551.7256,295.3906" style="stroke:#181818;stroke-width:1;"/><line style="stroke:#181818;stroke-width:1;" x1="23.9551" x2="553.7256" y1="295.3906" y2="295.3906"/><text fill="#000000" font-family="sans-serif" font-size="13" lengthAdjust="spacing" textLength="165.3882" x="30.9551" y="290.3247">SaveCommand.Execute()</text></g><g><polygon fill="#181818" points="989.3013,320.5234,999.3013,324.5234,989.3013,328.5234,993.3013,324.5234" style="stroke:#181818;stroke-width:1;"/><line style="stroke:#181818;stroke-width:1;" x1="559.7256" x2="995.3013" y1="324.5234" y2="324.5234"/><text fill="#000000" font-family="sans-serif" font-size="13" lengthAdjust="spacing" textLength="96.9795" x="566.7256" y="319.4575">ValidateForm()</text></g><g><polygon fill="#181818" points="570.7256,360.2227,560.7256,364.2227,570.7256,368.2227,566.7256,364.2227" style="stroke:#181818;stroke-width:1;"/><line style="stroke:#181818;stroke-width:1;" x1="564.7256" x2="1000.3013" y1="364.2227" y2="364.2227"/><text fill="#000000" font-family="sans-serif" font-size="13" lengthAdjust="spacing" textLength="175.9443" x="576.7256" y="359.1567">Afficher messages d'erreur</text></g><path d="M1006,337.5234 L1006,377.5234 L1287,377.5234 L1287,347.5234 L1277,337.5234 L1006,337.5234 " fill="#FEFFDD" style="stroke:#181818;stroke-width:0.5;"/><path d="M1277,337.5234 L1277,347.5234 L1287,347.5234 L1277,337.5234 " fill="#FEFFDD" style="stroke:#181818;stroke-width:0.5;"/><text fill="#000000" font-family="sans-serif" font-size="13" lengthAdjust="spacing" textLength="245.7622" x="1012" y="354.5903">- V&#233;rification des champs obligatoires</text><text fill="#000000" font-family="sans-serif" font-size="13" lengthAdjust="spacing" textLength="260.0889" x="1012" y="369.7231">- Affichage des erreurs sur le formulaire</text><g><polygon fill="#181818" points="570.7256,399.9219,560.7256,403.9219,570.7256,407.9219,566.7256,403.9219" style="stroke:#181818;stroke-width:1;"/><line style="stroke:#181818;stroke-width:1;" x1="564.7256" x2="1000.3013" y1="403.9219" y2="403.9219"/><text fill="#000000" font-family="sans-serif" font-size="13" lengthAdjust="spacing" textLength="88.0928" x="576.7256" y="398.856">Validation OK</text></g><g><polygon fill="#181818" points="863.5273,429.0547,873.5273,433.0547,863.5273,437.0547,867.5273,433.0547" style="stroke:#181818;stroke-width:1;"/><line style="stroke:#181818;stroke-width:1;" x1="559.7256" x2="869.5273" y1="433.0547" y2="433.0547"/><text fill="#000000" font-family="sans-serif" font-size="13" lengthAdjust="spacing" textLength="291.8018" x="566.7256" y="427.9888">new BackupJob(Name, Source, Target, Type)</text></g><g><polygon fill="#181818" points="393.5967,458.1875,383.5967,462.1875,393.5967,466.1875,389.5967,462.1875" style="stroke:#181818;stroke-width:1;"/><line style="stroke:#181818;stroke-width:1;" x1="387.5967" x2="558.7256" y1="462.1875" y2="462.1875"/><text fill="#000000" font-family="sans-serif" font-size="13" lengthAdjust="spacing" textLength="65.3745" x="399.5967" y="457.1216">Close(job)</text></g><g><polygon fill="#181818" points="200.7998,487.3203,190.7998,491.3203,200.7998,495.3203,196.7998,491.3203" style="stroke:#181818;stroke-width:1;"/><line style="stroke:#181818;stroke-width:1;stroke-dasharray:2.0,2.0;" x1="194.7998" x2="381.5967" y1="491.3203" y2="491.3203"/><text fill="#000000" font-family="sans-serif" font-size="13" lengthAdjust="spacing" textLength="136.5127" x="206.7998" y="486.2544">Retour du BackupJob</text></g><!--SRC=[VLDDSzCm4BthL-paadYcPQP0WSc1cP3I0n3AD2MSjzOcLMjBHbervIUbVoD_ZBMTA7ReSB7ryVJswRrLU32sGeybo9TDRYgq_0ErDdO5P-UA3HS4S_eToUO45mPNDVWK9bh39ymVOWLVtArIcBFpy3EGLnqc6CpGs5_6QhTU65hFdAPY01WWpVfmuRfqlcnFD41PQMSl0lkaihYOzN6jHjdO0_hR2ooCHZREjghILAaXd6NmRHZP52OWK_IG5qQCW233mUJUHIOFqTQi0rLV7Ku_7YusXgkAhFYKRZ3AQjRN6KpzTjDK0MB0vTBaTxWYq0G5mfBizfbzCrtA5ME1nfDAl7MHH3a6IslekIPLZh6BMG-NjaU99rDfs3ap5taNo3Xrbkc9Q_LlZZtnL5Q5OIYwQc5aNNa2mKMVqmam-XMn_FzKb2MdTaMk6m8l1074Xx8ATPst__D-ZeyqEEQf5wUkBD7gLv-VA9TqMiFFiqwke6FNrUPi4rj2ZFTZghrgATvbC3SII03oNjG4kPgqZzvkc7BURYYeJec3facJhSWiAGI9E80UjWpAEYRmPdN72kGzBRORRmIy4vcy07TRc1Mo4xMXGKuw_TBH4tq_0aLMGrsarl- -qVzua2WD64CmaasUUb6SkPVtyU95EejNNm-koQ3jhFJCHj-n5DRvBlcRNV8tJVAYv4C6b-HBukZ_QNZfDayi9_TIkdNs_JujNA2HxFPQjl_mhXDBqlKN]--></g></svg>