<svg xmlns="http://www.w3.org/2000/svg" xmlns:xlink="http://www.w3.org/1999/xlink" contentStyleType="text/css" data-diagram-type="SEQUENCE" height="1131px" preserveAspectRatio="none" style="width:1819px;height:1131px;background:#FFFFFF;" version="1.1" viewBox="0 0 1819 1131" width="1819px" zoomAndPan="magnify"><title>Sequence Diagram - Execute All Jobs (Mise &#224; jour)</title><defs/><g><text fill="#000000" font-family="sans-serif" font-size="14" font-weight="bold" lengthAdjust="spacing" textLength="394.7002" x="712.0408" y="27.9951">Sequence Diagram - Execute All Jobs (Mise &#224; jour)</text><g><title>User</title><rect fill="#FFFFFF" fill-opacity="0.00000" height="931.9844" width="8" x="19.9551" y="118.5938"/><line style="stroke:#181818;stroke-width:0.5;stroke-dasharray:5.0,5.0;" x1="23" x2="23" y1="118.5938" y2="1050.5781"/></g><g><title>MainWindowViewModel</title><rect fill="#FFFFFF" fill-opacity="0.00000" height="931.9844" width="8" x="203.4336" y="118.5938"/><line style="stroke:#181818;stroke-width:0.5;stroke-dasharray:5.0,5.0;" x1="207.187" x2="207.187" y1="118.5938" y2="1050.5781"/></g><g><title>EasySaveFacade</title><rect fill="#FFFFFF" fill-opacity="0.00000" height="931.9844" width="8" x="455.5532" y="118.5938"/><line style="stroke:#181818;stroke-width:0.5;stroke-dasharray:5.0,5.0;" x1="458.665" x2="458.665" y1="118.5938" y2="1050.5781"/></g><g><title>ExecuteAllJobsCommand</title><rect fill="#FFFFFF" fill-opacity="0.00000" height="931.9844" width="8" x="702.9653" y="118.5938"/><line style="stroke:#181818;stroke-width:0.5;stroke-dasharray:5.0,5.0;" x1="706.6636" x2="706.6636" y1="118.5938" y2="1050.5781"/></g><g><title>BackupManager</title><rect fill="#FFFFFF" fill-opacity="0.00000" height="931.9844" width="8" x="900.8242" y="118.5938"/><line style="stroke:#181818;stroke-width:0.5;stroke-dasharray:5.0,5.0;" x1="904.2671" x2="904.2671" y1="118.5938" y2="1050.5781"/></g><g><title>BackupAlgorithm</title><rect fill="#FFFFFF" fill-opacity="0.00000" height="931.9844" width="8" x="1189.5723" y="118.5938"/><line style="stroke:#181818;stroke-width:0.5;stroke-dasharray:5.0,5.0;" x1="1193.416" x2="1193.416" y1="118.5938" y2="1050.5781"/></g><g><title>SaveFile</title><rect fill="#FFFFFF" fill-opacity="0.00000" height="931.9844" width="8" x="1441.6919" y="118.5938"/><line style="stroke:#181818;stroke-width:0.5;stroke-dasharray:5.0,5.0;" x1="1445.2871" x2="1445.2871" y1="118.5938" y2="1050.5781"/></g><g><text fill="#000000" font-family="sans-serif" font-size="14" lengthAdjust="spacing" textLength="31.9102" x="5" y="115.292">User</text><ellipse cx="23.9551" cy="50.7969" fill="#E2E2F0" rx="8" ry="8" style="stroke:#181818;stroke-width:0.5;"/><path d="M23.9551,58.7969 L23.9551,85.7969 M10.9551,66.7969 L36.9551,66.7969 M23.9551,85.7969 L10.9551,100.7969 M23.9551,85.7969 L36.9551,100.7969 " fill="#FFFFFF" fill-opacity="0.00000" style="stroke:#181818;stroke-width:0.5;"/></g><g><text fill="#000000" font-family="sans-serif" font-size="14" lengthAdjust="spacing" textLength="31.9102" x="5" y="1062.5732">User</text><ellipse cx="23.9551" cy="1074.375" fill="#E2E2F0" rx="8" ry="8" style="stroke:#181818;stroke-width:0.5;"/><path d="M23.9551,1082.375 L23.9551,1109.375 M10.9551,1090.375 L36.9551,1090.375 M23.9551,1109.375 L10.9551,1124.375 M23.9551,1109.375 L36.9551,1124.375 " fill="#FFFFFF" fill-opacity="0.00000" style="stroke:#181818;stroke-width:0.5;"/></g><g><rect fill="#E2E2F0" height="30.2969" rx="2.5" ry="2.5" style="stroke:#181818;stroke-width:0.5;" width="178.4932" x="118.187" y="87.2969"/><text fill="#000000" font-family="sans-serif" font-size="14" lengthAdjust="spacing" textLength="164.4932" x="125.187" y="107.292">MainWindowViewModel</text></g><g><rect fill="#E2E2F0" height="30.2969" rx="2.5" ry="2.5" style="stroke:#181818;stroke-width:0.5;" width="178.4932" x="118.187" y="1049.5781"/><text fill="#000000" font-family="sans-serif" font-size="14" lengthAdjust="spacing" textLength="164.4932" x="125.187" y="1069.5732">MainWindowViewModel</text></g><g><rect fill="#E2E2F0" height="30.2969" rx="2.5" ry="2.5" style="stroke:#181818;stroke-width:0.5;" width="131.7764" x="393.665" y="87.2969"/><text fill="#000000" font-family="sans-serif" font-size="14" lengthAdjust="spacing" textLength="117.7764" x="400.665" y="107.292">EasySaveFacade</text></g><g><rect fill="#E2E2F0" height="30.2969" rx="2.5" ry="2.5" style="stroke:#181818;stroke-width:0.5;" width="131.7764" x="393.665" y="1049.5781"/><text fill="#000000" font-family="sans-serif" font-size="14" lengthAdjust="spacing" textLength="117.7764" x="400.665" y="1069.5732">EasySaveFacade</text></g><g><rect fill="#E2E2F0" height="30.2969" rx="2.5" ry="2.5" style="stroke:#181818;stroke-width:0.5;" width="188.6035" x="612.6636" y="87.2969"/><text fill="#000000" font-family="sans-serif" font-size="14" lengthAdjust="spacing" textLength="174.6035" x="619.6636" y="107.292">ExecuteAllJobsCommand</text></g><g><rect fill="#E2E2F0" height="30.2969" rx="2.5" ry="2.5" style="stroke:#181818;stroke-width:0.5;" width="188.6035" x="612.6636" y="1049.5781"/><text fill="#000000" font-family="sans-serif" font-size="14" lengthAdjust="spacing" textLength="174.6035" x="619.6636" y="1069.5732">ExecuteAllJobsCommand</text></g><g><rect fill="#E2E2F0" height="30.2969" rx="2.5" ry="2.5" style="stroke:#181818;stroke-width:0.5;" width="127.1143" x="841.2671" y="87.2969"/><text fill="#000000" font-family="sans-serif" font-size="14" lengthAdjust="spacing" textLength="113.1143" x="848.2671" y="107.292">BackupManager</text></g><g><rect fill="#E2E2F0" height="30.2969" rx="2.5" ry="2.5" style="stroke:#181818;stroke-width:0.5;" width="127.1143" x="841.2671" y="1049.5781"/><text fill="#000000" font-family="sans-serif" font-size="14" lengthAdjust="spacing" textLength="113.1143" x="848.2671" y="1069.5732">BackupManager</text></g><g><rect fill="#E2E2F0" height="30.2969" rx="2.5" ry="2.5" style="stroke:#181818;stroke-width:0.5;" width="134.3125" x="1126.416" y="87.2969"/><text fill="#000000" font-family="sans-serif" font-size="14" lengthAdjust="spacing" textLength="120.3125" x="1133.416" y="107.292">BackupAlgorithm</text></g><g><rect fill="#E2E2F0" height="30.2969" rx="2.5" ry="2.5" style="stroke:#181818;stroke-width:0.5;" width="134.3125" x="1126.416" y="1049.5781"/><text fill="#000000" font-family="sans-serif" font-size="14" lengthAdjust="spacing" textLength="120.3125" x="1133.416" y="1069.5732">BackupAlgorithm</text></g><g><rect fill="#E2E2F0" height="30.2969" rx="2.5" ry="2.5" style="stroke:#181818;stroke-width:0.5;" width="72.8096" x="1409.2871" y="87.2969"/><text fill="#000000" font-family="sans-serif" font-size="14" lengthAdjust="spacing" textLength="58.8096" x="1416.2871" y="107.292">SaveFile</text></g><g><rect fill="#E2E2F0" height="30.2969" rx="2.5" ry="2.5" style="stroke:#181818;stroke-width:0.5;" width="72.8096" x="1409.2871" y="1049.5781"/><text fill="#000000" font-family="sans-serif" font-size="14" lengthAdjust="spacing" textLength="58.8096" x="1416.2871" y="1069.5732">SaveFile</text></g><g><polygon fill="#181818" points="195.4336,145.7266,205.4336,149.7266,195.4336,153.7266,199.4336,149.7266" style="stroke:#181818;stroke-width:1;"/><line style="stroke:#181818;stroke-width:1;" x1="23.9551" x2="201.4336" y1="149.7266" y2="149.7266"/><text fill="#000000" font-family="sans-serif" font-size="13" lengthAdjust="spacing" textLength="159.4785" x="30.9551" y="144.6606">Choix: "Execute all jobs"</text></g><g><line style="stroke:#181818;stroke-width:1;" x1="207.4336" x2="249.4336" y1="193.9922" y2="193.9922"/><line style="stroke:#181818;stroke-width:1;" x1="249.4336" x2="249.4336" y1="193.9922" y2="206.9922"/><line style="stroke:#181818;stroke-width:1;" x1="208.4336" x2="249.4336" y1="206.9922" y2="206.9922"/><polygon fill="#181818" points="218.4336,202.9922,208.4336,206.9922,218.4336,210.9922,214.4336,206.9922" style="stroke:#181818;stroke-width:1;"/><text fill="#000000" font-family="sans-serif" font-size="13" lengthAdjust="spacing" textLength="238.1196" x="214.4336" y="173.7935">while (IsBusinessSoftwareRunning())</text><text fill="#000000" font-family="sans-serif" font-size="13" lengthAdjust="spacing" textLength="77.7397" x="214.4336" y="188.9263">Attente (2s)</text></g><g><polygon fill="#181818" points="447.5532,232.125,457.5532,236.125,447.5532,240.125,451.5532,236.125" style="stroke:#181818;stroke-width:1;"/><line style="stroke:#181818;stroke-width:1;" x1="207.4336" x2="453.5532" y1="236.125" y2="236.125"/><text fill="#000000" font-family="sans-serif" font-size="13" lengthAdjust="spacing" textLength="105.46" x="214.4336" y="231.0591">ExecuteAllJobs()</text></g><g><polygon fill="#181818" points="694.9653,261.2578,704.9653,265.2578,694.9653,269.2578,698.9653,265.2578" style="stroke:#181818;stroke-width:1;"/><line style="stroke:#181818;stroke-width:1;" x1="459.5532" x2="700.9653" y1="265.2578" y2="265.2578"/><text fill="#000000" font-family="sans-serif" font-size="13" lengthAdjust="spacing" textLength="223.4121" x="466.5532" y="260.1919">new ExecuteAllJobsCommand(BM)</text></g><g><polygon fill="#181818" points="694.9653,290.3906,704.9653,294.3906,694.9653,298.3906,698.9653,294.3906" style="stroke:#181818;stroke-width:1;"/><line style="stroke:#181818;stroke-width:1;" x1="459.5532" x2="700.9653" y1="294.3906" y2="294.3906"/><text fill="#000000" font-family="sans-serif" font-size="13" lengthAdjust="spacing" textLength="62.5308" x="466.5532" y="289.3247">Execute()</text></g><g><polygon fill="#181818" points="892.8242,319.5234,902.8242,323.5234,892.8242,327.5234,896.8242,323.5234" style="stroke:#181818;stroke-width:1;"/><line style="stroke:#181818;stroke-width:1;" x1="706.9653" x2="898.8242" y1="323.5234" y2="323.5234"/><text fill="#000000" font-family="sans-serif" font-size="13" lengthAdjust="spacing" textLength="144.2061" x="713.9653" y="318.4575">ExecuteAllJobsAsync()</text></g><g><line style="stroke:#181818;stroke-width:1;" x1="904.8242" x2="946.8242" y1="367.7891" y2="367.7891"/><line style="stroke:#181818;stroke-width:1;" x1="946.8242" x2="946.8242" y1="367.7891" y2="380.7891"/><line style="stroke:#181818;stroke-width:1;" x1="905.8242" x2="946.8242" y1="380.7891" y2="380.7891"/><polygon fill="#181818" points="915.8242,376.7891,905.8242,380.7891,915.8242,384.7891,911.8242,380.7891" style="stroke:#181818;stroke-width:1;"/><text fill="#000000" font-family="sans-serif" font-size="13" lengthAdjust="spacing" textLength="238.1196" x="911.8242" y="347.5903">while (IsBusinessSoftwareRunning())</text><text fill="#000000" font-family="sans-serif" font-size="13" lengthAdjust="spacing" textLength="77.7397" x="911.8242" y="362.7231">Attente (2s)</text></g><g><line style="stroke:#181818;stroke-width:1;" x1="904.8242" x2="946.8242" y1="409.9219" y2="409.9219"/><line style="stroke:#181818;stroke-width:1;" x1="946.8242" x2="946.8242" y1="409.9219" y2="422.9219"/><line style="stroke:#181818;stroke-width:1;" x1="905.8242" x2="946.8242" y1="422.9219" y2="422.9219"/><polygon fill="#181818" points="915.8242,418.9219,905.8242,422.9219,915.8242,426.9219,911.8242,422.9219" style="stroke:#181818;stroke-width:1;"/><text fill="#000000" font-family="sans-serif" font-size="13" lengthAdjust="spacing" textLength="257.0928" x="911.8242" y="404.856">S&#233;parer fichiers prioritaires et normaux</text></g><g><line style="stroke:#181818;stroke-width:1;" x1="904.8242" x2="946.8242" y1="452.0547" y2="452.0547"/><line style="stroke:#181818;stroke-width:1;" x1="946.8242" x2="946.8242" y1="452.0547" y2="465.0547"/><line style="stroke:#181818;stroke-width:1;" x1="905.8242" x2="946.8242" y1="465.0547" y2="465.0547"/><polygon fill="#181818" points="915.8242,461.0547,905.8242,465.0547,915.8242,469.0547,911.8242,465.0547" style="stroke:#181818;stroke-width:1;"/><text fill="#000000" font-family="sans-serif" font-size="13" lengthAdjust="spacing" textLength="260.4507" x="911.8242" y="446.9888">Ex&#233;cuter d'abord les fichiers prioritaires</text></g><g><polygon fill="#181818" points="1181.5723,490.1875,1191.5723,494.1875,1181.5723,498.1875,1185.5723,494.1875" style="stroke:#181818;stroke-width:1;"/><line style="stroke:#181818;stroke-width:1;" x1="904.8242" x2="1187.5723" y1="494.1875" y2="494.1875"/><text fill="#000000" font-family="sans-serif" font-size="13" lengthAdjust="spacing" textLength="264.748" x="911.8242" y="489.1216">new FullBackupAlgorithm / DiffAlgorithm</text></g><g><polygon fill="#181818" points="1181.5723,537.4531,1191.5723,541.4531,1181.5723,545.4531,1185.5723,541.4531" style="stroke:#181818;stroke-width:1;"/><line style="stroke:#181818;stroke-width:1;" x1="904.8242" x2="1187.5723" y1="541.4531" y2="541.4531"/><text fill="#000000" font-family="sans-serif" font-size="13" lengthAdjust="spacing" textLength="82.3481" x="911.8242" y="536.3872">Execute(job)</text></g><path d="M1198,507.1875 L1198,562.1875 L1420,562.1875 L1420,517.1875 L1410,507.1875 L1198,507.1875 " fill="#FEFFDD" style="stroke:#181818;stroke-width:0.5;"/><path d="M1410,507.1875 L1410,517.1875 L1420,517.1875 L1410,507.1875 " fill="#FEFFDD" style="stroke:#181818;stroke-width:0.5;"/><text fill="#000000" font-family="sans-serif" font-size="13" lengthAdjust="spacing" textLength="201.0684" x="1204" y="524.2544">- Attente si logiciel m&#233;tier actif</text><text fill="#000000" font-family="sans-serif" font-size="13" lengthAdjust="spacing" textLength="148.1606" x="1204" y="539.3872">- V&#233;rification du fichier</text><text fill="#000000" font-family="sans-serif" font-size="13" lengthAdjust="spacing" textLength="134.2148" x="1204" y="554.52">- Copie si n&#233;cessaire</text><g><line style="stroke:#181818;stroke-width:1;" x1="1193.5723" x2="1235.5723" y1="618.9844" y2="618.9844"/><line style="stroke:#181818;stroke-width:1;" x1="1235.5723" x2="1235.5723" y1="618.9844" y2="631.9844"/><line style="stroke:#181818;stroke-width:1;" x1="1194.5723" x2="1235.5723" y1="631.9844" y2="631.9844"/><polygon fill="#181818" points="1204.5723,627.9844,1194.5723,631.9844,1204.5723,635.9844,1200.5723,631.9844" style="stroke:#181818;stroke-width:1;"/><text fill="#000000" font-family="sans-serif" font-size="13" lengthAdjust="spacing" textLength="238.1196" x="1200.5723" y="583.6528">while (IsBusinessSoftwareRunning())</text><text fill="#000000" font-family="sans-serif" font-size="13" lengthAdjust="spacing" textLength="125.0425" x="1200.5723" y="598.7856">_status = "paused"</text><text fill="#000000" font-family="sans-serif" font-size="13" lengthAdjust="spacing" textLength="111.1729" x="1200.5723" y="613.9185">Thread.Sleep(2s)</text></g><g><line style="stroke:#181818;stroke-width:1;" x1="1193.5723" x2="1235.5723" y1="661.1172" y2="661.1172"/><line style="stroke:#181818;stroke-width:1;" x1="1235.5723" x2="1235.5723" y1="661.1172" y2="674.1172"/><line style="stroke:#181818;stroke-width:1;" x1="1194.5723" x2="1235.5723" y1="674.1172" y2="674.1172"/><polygon fill="#181818" points="1204.5723,670.1172,1194.5723,674.1172,1204.5723,678.1172,1200.5723,674.1172" style="stroke:#181818;stroke-width:1;"/><text fill="#000000" font-family="sans-serif" font-size="13" lengthAdjust="spacing" textLength="127.7275" x="1200.5723" y="656.0513">_status = "running"</text></g><g><line style="stroke:#181818;stroke-width:1;" x1="1193.5723" x2="1235.5723" y1="703.25" y2="703.25"/><line style="stroke:#181818;stroke-width:1;" x1="1235.5723" x2="1235.5723" y1="703.25" y2="716.25"/><line style="stroke:#181818;stroke-width:1;" x1="1194.5723" x2="1235.5723" y1="716.25" y2="716.25"/><polygon fill="#181818" points="1204.5723,712.25,1194.5723,716.25,1204.5723,720.25,1200.5723,716.25" style="stroke:#181818;stroke-width:1;"/><text fill="#000000" font-family="sans-serif" font-size="13" lengthAdjust="spacing" textLength="113.6992" x="1200.5723" y="698.1841">CopyFile(job, file)</text></g><g><polygon fill="#181818" points="1433.6919,741.3828,1443.6919,745.3828,1433.6919,749.3828,1437.6919,745.3828" style="stroke:#181818;stroke-width:1;"/><line style="stroke:#181818;stroke-width:1;" x1="904.8242" x2="1439.6919" y1="745.3828" y2="745.3828"/><text fill="#000000" font-family="sans-serif" font-size="13" lengthAdjust="spacing" textLength="112.6328" x="911.8242" y="740.3169">SaveFile(file, job)</text></g><g><line style="stroke:#181818;stroke-width:1;" x1="1445.6919" x2="1487.6919" y1="789.6484" y2="789.6484"/><line style="stroke:#181818;stroke-width:1;" x1="1487.6919" x2="1487.6919" y1="789.6484" y2="802.6484"/><line style="stroke:#181818;stroke-width:1;" x1="1446.6919" x2="1487.6919" y1="802.6484" y2="802.6484"/><polygon fill="#181818" points="1456.6919,798.6484,1446.6919,802.6484,1456.6919,806.6484,1452.6919,802.6484" style="stroke:#181818;stroke-width:1;"/><text fill="#000000" font-family="sans-serif" font-size="13" lengthAdjust="spacing" textLength="176.4648" x="1452.6919" y="769.4497">if (!contains(fileExtension))</text><text fill="#000000" font-family="sans-serif" font-size="13" lengthAdjust="spacing" textLength="40.2632" x="1452.6919" y="784.5825">return</text></g><g><line style="stroke:#181818;stroke-width:1;" x1="1445.6919" x2="1487.6919" y1="831.7813" y2="831.7813"/><line style="stroke:#181818;stroke-width:1;" x1="1487.6919" x2="1487.6919" y1="831.7813" y2="844.7813"/><line style="stroke:#181818;stroke-width:1;" x1="1446.6919" x2="1487.6919" y1="844.7813" y2="844.7813"/><polygon fill="#181818" points="1456.6919,840.7813,1446.6919,844.7813,1456.6919,848.7813,1452.6919,844.7813" style="stroke:#181818;stroke-width:1;"/><text fill="#000000" font-family="sans-serif" font-size="13" lengthAdjust="spacing" textLength="102.6289" x="1452.6919" y="826.7153">EncryptFile(file)</text></g><g><line style="stroke:#181818;stroke-width:1;" x1="1445.6919" x2="1487.6919" y1="873.9141" y2="873.9141"/><line style="stroke:#181818;stroke-width:1;" x1="1487.6919" x2="1487.6919" y1="873.9141" y2="886.9141"/><line style="stroke:#181818;stroke-width:1;" x1="1446.6919" x2="1487.6919" y1="886.9141" y2="886.9141"/><polygon fill="#181818" points="1456.6919,882.9141,1446.6919,886.9141,1456.6919,890.9141,1452.6919,886.9141" style="stroke:#181818;stroke-width:1;"/><text fill="#000000" font-family="sans-serif" font-size="13" lengthAdjust="spacing" textLength="360.0898" x="1452.6919" y="868.8481">LogAction(BackupName, SourceFile, TargetFile, Status)</text></g><g><polygon fill="#181818" points="1433.6919,912.0469,1443.6919,916.0469,1433.6919,920.0469,1437.6919,916.0469" style="stroke:#181818;stroke-width:1;"/><line style="stroke:#181818;stroke-width:1;" x1="904.8242" x2="1439.6919" y1="916.0469" y2="916.0469"/><text fill="#000000" font-family="sans-serif" font-size="13" lengthAdjust="spacing" textLength="112.6328" x="911.8242" y="910.981">SaveFile(file, job)</text></g><g><polygon fill="#181818" points="915.8242,941.1797,905.8242,945.1797,915.8242,949.1797,911.8242,945.1797" style="stroke:#181818;stroke-width:1;"/><line style="stroke:#181818;stroke-width:1;stroke-dasharray:2.0,2.0;" x1="909.8242" x2="1444.6919" y1="945.1797" y2="945.1797"/><text fill="#000000" font-family="sans-serif" font-size="13" lengthAdjust="spacing" textLength="119.5771" x="921.8242" y="940.1138">Fin du chiffrement</text></g><g><polygon fill="#181818" points="717.9653,970.3125,707.9653,974.3125,717.9653,978.3125,713.9653,974.3125" style="stroke:#181818;stroke-width:1;"/><line style="stroke:#181818;stroke-width:1;stroke-dasharray:2.0,2.0;" x1="711.9653" x2="903.8242" y1="974.3125" y2="974.3125"/><text fill="#000000" font-family="sans-serif" font-size="13" lengthAdjust="spacing" textLength="136.0366" x="723.9653" y="969.2466">Fin de la sauvegarde</text></g><g><polygon fill="#181818" points="470.5532,999.4453,460.5532,1003.4453,470.5532,1007.4453,466.5532,1003.4453" style="stroke:#181818;stroke-width:1;"/><line style="stroke:#181818;stroke-width:1;stroke-dasharray:2.0,2.0;" x1="464.5532" x2="705.9653" y1="1003.4453" y2="1003.4453"/><text fill="#000000" font-family="sans-serif" font-size="13" lengthAdjust="spacing" textLength="41.2471" x="476.5532" y="998.3794">(term)</text></g><g><polygon fill="#181818" points="218.4336,1028.5781,208.4336,1032.5781,218.4336,1036.5781,214.4336,1032.5781" style="stroke:#181818;stroke-width:1;"/><line style="stroke:#181818;stroke-width:1;stroke-dasharray:2.0,2.0;" x1="212.4336" x2="458.5532" y1="1032.5781" y2="1032.5781"/><text fill="#000000" font-family="sans-serif" font-size="13" lengthAdjust="spacing" textLength="26.5713" x="224.4336" y="1027.5122">(fin)</text></g><!--SRC=[fLN1Zjis4BthAwQ-M08sRPqsQRj02zYk5sWG5q6SffS0nOGQoqmeKYMfjVTlUcly7Vgn32dPabmZBTB3Uarv-ERDcpSZzrxg2YsMm9zU2bcXzYympwKkOFOayT8hWWtzMPCM13zBB4Bm8rWTIDIUOAuKF3Dl7QHhwGYQl-2TgMsM92YyiV2R8viCe66oHgb_bpet-zUIzckJave0EZYVnk4hT0yRlASx59XJZ6o_NeIrT9XD8BCqPOawZz7XbsMPZyCNADxNrHer5cHZs69zBMAk2cEbtvKn9fp6KP6PL2slfNselDcOhK-IASmoU3wjlLJIeQVQWjWPwQI7V4g7vXZOMl26_pbG_EUmlgS2RKuk2Qh1evzwJMvXoRSFj-T20LdtTrpg9EHwdC7SUzByt4ceDIXJC4TIK3P7BncCd0VI8BWthcSWZKxEEIuIxdTS5wI_k4Njf2RdGc5xjFIorfhTaMRP6ttAcZvsMI3o3HEfAiPY7umxDyxJFhk5STlIYF4j2uSSqVpD8I1iSoHGoDHZJmd8WpfBcBH80RDhz2resiDLFwIBTNRjGXVSfd-ImVAKIc4mlHh8nNr-q69dZQQakn-W5klBMkOXhaLy-Z-wirYVu3-h7zzbyBevMhcL0YDzTXVmOSTP7LHM1dUZjEovFjEcERB9cTRLmA2_DhR4-Z2uipfREf_YMsFpwEdhcGAnxrbbxcnBYX472WVTftWQF0hdVZQwb64IsqRVrKfTp2fynNjgkpsVHtTElURPYGhzaC4Bj9toGyfCIfXAygHLjldWu7weOw8DgsnbiVC9y3OSzFSVpUL5ABSnwg8LzIbP_74Pap60PYMulK6hX7GE8LMI1FPz5V_937yuZxvsy2DCAgmTvPCt-jNE4kPVRXHH5KqonXrSiItIv2A2QJw4ZHS4lE4254KPPrzpGtUikgMIbVXNd_MxaltMBT4qeDt0gJEpsJNpqe6LTdnoOSU8DgLDUhnBTBc5z0jXDAVNBgPOdI22I9PyRVKdxg-q2ASpmPORRzmLtosayuEAkVVk4r3FJJ4NePAqTUolM7Az6_QUY0BSm2kq1Vds-oQseat7UtKrd921k9eVZEQpyskOlyyKdZVmI-9NaurB2LrSc1tiO51v8rUg-S3k79RSBOGx6HqkUaz40iEr6qFYRX_Cztcf3juIAU-Lij_Su_SKazVPHm00]--></g></svg>